<?xml version="1.0" encoding="UTF-8" standalone="no" ?>
<!DOCTYPE svg PUBLIC "-//W3C//DTD SVG 1.1//EN" "http://www.w3.org/Graphics/SVG/1.1/DTD/svg11.dtd">
<svg xmlns="http://www.w3.org/2000/svg" xmlns:xlink="http://www.w3.org/1999/xlink" version="1.1" width="1080" height="1080" viewBox="0 0 1080 1080" xml:space="preserve">
<desc>Created with Fabric.js 5.2.4</desc>
<defs>
</defs>
<rect x="0" y="0" width="100%" height="100%" fill="transparent"></rect>
<g transform="matrix(1 0 0 1 540 540)" id="e07933d7-bada-45f4-9798-185b07ad3ecd"  >
<rect style="stroke: none; stroke-width: 1; stroke-dasharray: none; stroke-linecap: butt; stroke-dashoffset: 0; stroke-linejoin: miter; stroke-miterlimit: 4; fill: rgb(255,255,255); fill-rule: nonzero; opacity: 1; visibility: hidden;" vector-effect="non-scaling-stroke"  x="-540" y="-540" rx="0" ry="0" width="1080" height="1080" />
</g>
<g transform="matrix(Infinity NaN NaN Infinity 0 0)" id="9a76459a-4510-4010-8f26-01e4e5002155"  >
</g>
<g transform="matrix(-1.05 0 0 1.05 540 540)" id="SVGRepo_iconCarrier"  >
<path style="stroke: rgb(96,103,113); stroke-width: 20; stroke-dasharray: none; stroke-linecap: butt; stroke-dashoffset: 0; stroke-linejoin: miter; stroke-miterlimit: 4; fill: rgb(96,103,113); fill-rule: nonzero; opacity: 1;"  transform=" translate(-512.01, -512.01)" d="M 608.544 1023.744 C 317.712 1023.744 315.47299999999996 1011.682 279.457 984.561 C 260.353 970.193 224.30599999999998 960.241 92.642 951.6650000000001 C 83.09 951.041 74.002 947.3770000000001 67.907 939.9850000000001 C 65.107 936.5770000000001 -0.6850000000000023 840.6250000000001 -0.6850000000000023 686.9450000000002 C -0.6850000000000023 535.5050000000001 46.403 466.48000000000013 48.418 463.2800000000002 C 54.25787143278085 453.9236049134147 64.50866520931059 448.23879892525065 75.53799999999998 448.2400000000002 C 183.64999999999998 448.2400000000002 333.522 310.2400000000002 434.274 69.34400000000016 C 451.698 27.68 455.298 0.272 519.298 0.272 C 555.698 0.272 596.498 26.336 616.642 59.777 C 657.97 128.09699999999998 636.9770000000001 274.834 617.5690000000001 353.25 C 683.5690000000001 352.722 803.041 351.825 859.8890000000001 351.825 C 938.9610000000001 351.825 991.2960000000002 398.977 992.8800000000001 467.905 C 993.4090000000001 490.657 990.416 519.713 983.8400000000001 534.7529999999999 C 1001.2480000000002 552.1129999999999 1023.6970000000001 578.289 1024.6720000000003 612.001 C 1025.8880000000001 655.521 997.3920000000003 688.656 979.2000000000003 707.664 C 983.3750000000002 720.3199999999999 991.7270000000003 737.104 990.9100000000003 757.169 C 988.9100000000003 806.513 950.8150000000003 838.305 927.0870000000003 854.896 C 929.0550000000003 868.4 930.5910000000003 893.872 926.2550000000003 913.568 C 909.1350000000003 992.177 793.8550000000004 1023.745 608.5430000000003 1023.745 z M 109.617 886.77 C 224.305 896.259 285.615 909.106 317.951 933.442 C 342.975 952.29 339.119 959.7620000000001 608.543 959.7620000000001 C 690.719 959.7620000000001 851.439 956.3380000000001 863.759 899.922 C 868.655 877.3620000000001 844.864 855.187 844.783 855.011 C 838.287 838.9789999999999 845.52 820.1619999999999 861.36 813.2339999999999 C 861.615 813.1059999999999 925.503 790.227 926.96 754.5139999999999 C 927.9200000000001 731.6829999999999 912.24 717.9709999999999 911.888 717.3939999999999 C 902.5600000000001 702.9309999999999 905.9680000000001 683.0909999999999 920.1120000000001 673.2339999999999 C 920.272 673.1059999999999 961.6630000000001 648.0189999999999 960.6550000000001 613.8109999999999 C 959.8710000000001 586.6429999999999 924.0790000000001 567.5219999999999 922.9910000000001 566.8829999999999 C 914.9910000000001 562.3069999999999 909.1670000000001 554.387 907.3430000000001 545.3309999999999 C 905.551 536.2909999999999 907.5670000000001 526.8029999999999 913.1830000000001 519.459 C 913.1830000000001 519.459 929.4550000000002 493.60299999999995 928.863 469.3469999999999 C 927.695 417.4269999999999 871.8560000000001 415.7949999999999 859.8710000000001 415.7949999999999 C 779.1510000000001 415.7949999999999 571.8410000000001 416.6109999999999 571.8410000000001 416.6109999999999 C 560.6570000000002 416.6589999999999 550.9770000000001 411.37899999999985 544.9610000000001 402.4349999999999 C 538.9610000000001 393.4899999999999 538.5130000000001 382.3869999999999 542.0330000000001 372.2109999999999 C 573.2960000000002 282.1789999999999 590.7530000000002 140.9309999999999 561.7600000000001 92.6749999999999 C 553.2160000000001 78.4509999999999 551.2640000000001 64.2429999999999 519.2640000000001 64.2429999999999 C 514.8320000000001 64.2429999999999 504.27300000000014 67.7469999999999 493.2650000000001 93.9869999999999 C 386.3370000000001 349.8269999999999 226.6250000000001 497.8109999999999 95.80900000000008 511.1549999999999 C 84.52900000000008 536.8829999999999 63.31300000000008 590.1949999999999 63.31300000000008 686.93 C 63.31300000000008 785.6669999999999 94.59300000000007 862.05 109.61800000000008 886.77 z" stroke-linecap="round" />
</g>
</svg>